<svg xmlns="http://www.w3.org/2000/svg" width="1200" height="630" viewBox="0 0 1200 630">
  <defs>
    <radialGradient id="teal-glow" cx="75%" cy="40%" r="55%">
      <stop offset="0%" stop-color="#00D4A0" stop-opacity="0.10"/>
      <stop offset="100%" stop-color="#0A1628" stop-opacity="0"/>
    </radialGradient>
    <radialGradient id="amber-glow" cx="20%" cy="80%" r="35%">
      <stop offset="0%" stop-color="#FFB800" stop-opacity="0.04"/>
      <stop offset="100%" stop-color="#0A1628" stop-opacity="0"/>
    </radialGradient>
    <pattern id="grid" x="0" y="0" width="60" height="60" patternUnits="userSpaceOnUse">
      <path d="M60 0 L0 0 0 60" fill="none" stroke="#00D4A0" stroke-opacity="0.04" stroke-width="1"/>
    </pattern>
  </defs>

  <!-- Background -->
  <rect width="1200" height="630" fill="#081020"/>
  <rect width="1200" height="630" fill="url(#teal-glow)"/>
  <rect width="1200" height="630" fill="url(#amber-glow)"/>
  <rect width="1200" height="630" fill="url(#grid)"/>

  <!-- Top accent line -->
  <defs>
    <linearGradient id="topline" x1="0%" y1="0%" x2="100%" y2="0%">
      <stop offset="0%" stop-color="#00D4A0" stop-opacity="0"/>
      <stop offset="50%" stop-color="#00D4A0" stop-opacity="0.5"/>
      <stop offset="100%" stop-color="#00D4A0" stop-opacity="0"/>
    </linearGradient>
  </defs>
  <rect width="1200" height="1" y="0" fill="url(#topline)"/>

  <!-- Border -->
  <rect x="1" y="1" width="1198" height="628" fill="none" stroke="#1A2D45" stroke-width="2"/>

  <!-- Decorative fingerprint — right, FPL colours -->
  <g transform="translate(960, 315)" opacity="0.07">
    <path d="M0 138 A138 138 0 0 1 -138 0" fill="none" stroke="#00D4A0" stroke-width="6" stroke-linecap="round"/>
    <path d="M0 138 A138 138 0 0 0 138 0" fill="none" stroke="#00D4A0" stroke-width="6" stroke-linecap="round"/>
    <path d="M0 104 A104 104 0 0 1 -104 0" fill="none" stroke="#00D4A0" stroke-width="6" stroke-linecap="round"/>
    <path d="M0 104 A104 104 0 0 0 104 0" fill="none" stroke="#00D4A0" stroke-width="6" stroke-linecap="round"/>
    <path d="M0 70 A70 70 0 0 1 -70 0" fill="none" stroke="#00D4A0" stroke-width="6" stroke-linecap="round"/>
    <path d="M0 70 A70 70 0 0 0 70 0" fill="none" stroke="#00D4A0" stroke-width="6" stroke-linecap="round"/>
    <path d="M0 38 A38 38 0 0 1 -38 0" fill="none" stroke="#00D4A0" stroke-width="6" stroke-linecap="round"/>
    <path d="M0 38 A38 38 0 0 0 38 0" fill="none" stroke="#00D4A0" stroke-width="6" stroke-linecap="round"/>
    <path d="M0 16 A16 16 0 0 1 -16 0" fill="none" stroke="#FFB800" stroke-width="6" stroke-linecap="round"/>
    <path d="M0 16 A16 16 0 0 0 16 0" fill="none" stroke="#FFB800" stroke-width="6" stroke-linecap="round"/>
    <circle cx="0" cy="0" r="12" fill="#00D4A0"/>
  </g>

  <!-- Studio attribution — top left -->
  <text x="80" y="90" font-family="'Courier New', monospace" font-size="14" fill="#8A9AB0" letter-spacing="3">SI187 APPS</text>

  <!-- Live badge -->
  <circle cx="80" cy="126" r="5" fill="#00D4A0"/>
  <text x="94" y="131" font-family="'Courier New', monospace" font-size="14" fill="#00D4A0" letter-spacing="1">LAUNCHING GW1 · AUGUST 2026</text>

  <!-- Main headline -->
  <text x="80" y="280" font-family="'Arial Black', sans-serif" font-size="88" font-weight="900" fill="#E8F0F5" letter-spacing="-3">FPL Coach</text>
  <text x="80" y="386" font-family="'Arial Black', sans-serif" font-size="88" font-weight="900" fill="#00D4A0" letter-spacing="-3">AI.</text>

  <!-- Positioning line -->
  <text x="80" y="446" font-family="'Courier New', monospace" font-size="22" fill="#8A9AB0" letter-spacing="0.5">The coaching companion for FPL managers who think for themselves.</text>

  <!-- Feature pills -->
  <rect x="80" y="490" width="180" height="36" rx="6" fill="rgba(0,212,160,0.08)" stroke="#00D4A0" stroke-opacity="0.2" stroke-width="1"/>
  <text x="170" y="513" text-anchor="middle" font-family="'Courier New', monospace" font-size="12" fill="#00D4A0" letter-spacing="1.5">CAPTAIN ANALYSIS</text>

  <rect x="276" y="490" width="190" height="36" rx="6" fill="rgba(0,212,160,0.08)" stroke="#00D4A0" stroke-opacity="0.2" stroke-width="1"/>
  <text x="371" y="513" text-anchor="middle" font-family="'Courier New', monospace" font-size="12" fill="#00D4A0" letter-spacing="1.5">TRANSFER IMPACT</text>

  <rect x="482" y="490" width="200" height="36" rx="6" fill="rgba(255,184,0,0.06)" stroke="#FFB800" stroke-opacity="0.2" stroke-width="1"/>
  <text x="582" y="513" text-anchor="middle" font-family="'Courier New', monospace" font-size="12" fill="#FFB800" letter-spacing="1.5">CHIP STRATEGY</text>

  <!-- Bottom URL -->
  <text x="80" y="578" font-family="'Courier New', monospace" font-size="16" fill="#3A4E60" letter-spacing="2">SI187APPS.COM/FPL-COACH-AI</text>
</svg>
